<?xml version="1.0" encoding="utf-8"?>
<!DOCTYPE svg PUBLIC "-//W3C//DTD SVG 20010904//EN" "http://www.w3.org/TR/2001/REC-SVG-20010904/DTD/svg10.dtd">
<svg version="1.0" xmlns="http://www.w3.org/2000/svg" width="220px" height="186px" viewBox="0 0 220 186" preserveAspectRatio="xMidYMid meet">
 <g fill="none" stroke="#000000" stroke-width="1">
  <path d="M0 93 l0 -93 110 0 110 0 0 93 0 93 -110 0 -110 0 0 -93z m138 32.6 c16.2 -12.5 32 -25.4 35.1 -28.6 5.9 -6.3 11.1 -15.6 12.8 -23 5.7 -24.6 -13.8 -51.9 -41.1 -57.6 -4.2 -0.9 -8.9 -1.2 -11.2 -0.9 -9.9 1.6 -20.4 5.9 -26.4 10.9 -3.9 3.4 -8.5 3.4 -12.5 0 -4.9 -4.1 -14.4 -8.4 -22 -10 -22.9 -4.8 -48.8 12.6 -56.1 37.5 -2 6.9 -2 14 -0.1 21.6 2.9 11.1 6.3 15.4 9.6 12.3 3 -2.8 7.8 -4.1 17.5 -4.6 16.4 -0.8 25.4 2.2 35.5 11.6 3.9 3.6 7 7.6 9.1 12 3.3 6.6 3.3 6.8 3.4 22 l0.2 15.4 4.7 4.8 4.8 4.9 3.6 -2.8 c2 -1.5 16.9 -13 33.1 -25.5z"/>
 </g>
 <g fill="#f27788">
  <path d="M95.3 146.3 c-0.4 -0.9 -0.1 -4.7 0.5 -8.5 1.6 -9.2 1.5 -14.4 -0.4 -20.9 -5.5 -18.8 -21.4 -33.5 -40.6 -37.5 -7.4 -1.6 -11.5 -1.3 -20.2 1.2 -2.7 0.8 -6.6 1.4 -8.7 1.4 -3.3 0 -3.8 -0.4 -4.8 -3.2 -0.7 -1.8 -1.4 -6.5 -1.8 -10.5 -1.6 -18.8 7.1 -35.4 22.3 -43.1 7.3 -3.7 14.3 -5.2 23.7 -5.2 12.7 0 23.2 3.8 31.3 11.2 l4.4 4.1 4.4 -4.1 c8.1 -7.5 18.6 -11.2 31.6 -11.2 19 0 34.5 9.2 41.8 24.7 2.4 5.1 2.7 7.3 3 17.8 0.3 9.1 0 13.3 -1.3 17.5 -3.4 11.3 -6.6 14.5 -42.1 42.2 -32.4 25.3 -33 25.7 -37.7 25.7 -3.6 0.1 -4.9 -0.3 -5.4 -1.6z m-61.3 -87.2 c0.1 -11.6 11.9 -23.1 25.4 -24.7 5.7 -0.7 8.3 -2.4 7.1 -4.5 -1.2 -1.8 -9.4 -0.6 -15.7 2.3 -10.4 4.8 -18.1 13.7 -21.4 24.8 -1.3 4.3 -1.3 5.8 -0.4 7.9 l1.2 2.6 1.9 -2.4 c1.1 -1.3 1.9 -3.9 1.9 -6z"/>
 </g>
 <g fill="#ffffff">
  <path d="M92.3 150.8 l-7.2 -7.3 2 -3.2 c1.8 -2.9 2 -4.5 1.7 -13.6 -0.3 -9.2 -0.6 -10.9 -3.6 -16.9 -5.6 -11.4 -17 -20.3 -29.4 -22.9 -8.3 -1.8 -22.9 0 -25.8 3.1 -1.3 1.4 -6.1 4 -7.4 4 -2.1 0 -6 -5.6 -8.1 -11.5 -2.6 -7.6 -3.2 -23.7 -1 -31.1 5.8 -20.3 23 -35.4 43.7 -38.6 13.7 -2.1 28.8 1.8 39.6 10 l4.3 3.3 3.1 -2.6 c3.8 -3.2 11.6 -7.2 17.7 -9.1 27.9 -8.4 58.2 8.2 66.5 36.5 1.8 6.2 2.1 19.3 0.5 26.1 -1.7 7.4 -6.9 16.7 -12.8 23 -6.7 7 -72.5 58 -75 58 -0.9 0 -4.9 -3.3 -8.8 -7.2z m43.1 -31.6 c35.5 -27.7 38.7 -30.9 42.1 -42.2 1.2 -4.1 1.6 -8.1 1.3 -14.6 -0.4 -11 -3.3 -17.9 -10.9 -25.9 -15.9 -16.8 -42.2 -17.7 -59.7 -2.1 -2.9 2.5 -6.1 4.6 -7.2 4.6 -1.1 0 -4.3 -2.1 -7.2 -4.6 -13.6 -12.2 -32.6 -14.6 -49 -6.3 -17.5 8.8 -26.4 29.4 -20.7 47.7 1.2 3.7 1 3.7 7.5 1.7 28.2 -8.5 58.4 8 66.8 36.4 1.8 6 2.1 19.3 0.6 25.5 -1 4.5 -0.6 5.6 1.8 5.5 0.9 0 16.5 -11.6 34.6 -25.7z"/>
  <path d="M29 70.3 c-4.2 -1.5 -5.2 -7.9 -2.5 -16.7 4.2 -13.9 14.5 -23.3 29.6 -27.2 9.6 -2.5 14.9 -0.6 14.9 5.4 0 3 -3 4.9 -8.9 5.6 -13.4 1.7 -25 13.2 -25.1 24.9 0 2.7 -0.7 4.5 -2.5 6.2 -2.5 2.6 -2.9 2.7 -5.5 1.8z"/>
 </g>
</svg>